<?xml version="1.0" encoding="UTF-8" standalone="no"?>
<!DOCTYPE svg PUBLIC "-//W3C//DTD SVG 1.1//EN"
 "http://www.w3.org/Graphics/SVG/1.1/DTD/svg11.dtd">
<!-- Generated by graphviz version 2.40.1 (20161225.0304)
 -->
<!-- Title: %3 Pages: 1 -->
<svg width="1182pt" height="1412pt"
 viewBox="0.00 0.00 1182.00 1412.00" xmlns="http://www.w3.org/2000/svg" xmlns:xlink="http://www.w3.org/1999/xlink">
<g id="graph0" class="graph" transform="scale(1 1) rotate(0) translate(4 1408)">
<title>%3</title>
<polygon fill="#ffffff" stroke="transparent" points="-4,4 -4,-1408 1178,-1408 1178,4 -4,4"/>
<!-- Z -->
<g id="node1" class="node">
<title>Z</title>
<ellipse fill="none" stroke="#000000" cx="984" cy="-1386" rx="27" ry="18"/>
<text text-anchor="middle" x="984" y="-1382.3" font-family="Times,serif" font-size="14.00" fill="#000000">Z</text>
</g>
<!-- A -->
<g id="node2" class="node">
<title>A</title>
<ellipse fill="none" stroke="#000000" cx="832" cy="-1314" rx="27" ry="18"/>
<text text-anchor="middle" x="832" y="-1310.3" font-family="Times,serif" font-size="14.00" fill="#000000">A</text>
</g>
<!-- Z&#45;&gt;A -->
<g id="edge1" class="edge">
<title>Z&#45;&gt;A</title>
<path fill="none" stroke="#000000" d="M961.8979,-1375.5306C936.0066,-1363.2663 892.9209,-1342.8573 863.5275,-1328.9341"/>
<polygon fill="#000000" stroke="#000000" points="864.6645,-1325.5999 854.1288,-1324.4821 861.6678,-1331.9261 864.6645,-1325.5999"/>
</g>
<!-- C -->
<g id="node3" class="node">
<title>C</title>
<ellipse fill="none" stroke="#000000" cx="190" cy="-1242" rx="27" ry="18"/>
<text text-anchor="middle" x="190" y="-1238.3" font-family="Times,serif" font-size="14.00" fill="#000000">C</text>
</g>
<!-- A&#45;&gt;C -->
<g id="edge2" class="edge">
<title>A&#45;&gt;C</title>
<path fill="none" stroke="#000000" d="M805.2314,-1310.9979C703.9755,-1299.6421 344.2145,-1259.2951 227.1242,-1246.1635"/>
<polygon fill="#000000" stroke="#000000" points="227.2107,-1242.6513 216.8829,-1245.0149 226.4304,-1249.6077 227.2107,-1242.6513"/>
</g>
<!-- J -->
<g id="node4" class="node">
<title>J</title>
<ellipse fill="none" stroke="#000000" cx="848" cy="-1026" rx="27" ry="18"/>
<text text-anchor="middle" x="848" y="-1022.3" font-family="Times,serif" font-size="14.00" fill="#000000">J</text>
</g>
<!-- A&#45;&gt;J -->
<g id="edge3" class="edge">
<title>A&#45;&gt;J</title>
<path fill="none" stroke="#000000" d="M833.0009,-1295.9843C835.7059,-1247.2939 843.178,-1112.7961 846.4413,-1054.0573"/>
<polygon fill="#000000" stroke="#000000" points="849.9393,-1054.1877 846.9995,-1044.0089 842.9501,-1053.7993 849.9393,-1054.1877"/>
</g>
<!-- D -->
<g id="node5" class="node">
<title>D</title>
<ellipse fill="none" stroke="#000000" cx="342" cy="-18" rx="27" ry="18"/>
<text text-anchor="middle" x="342" y="-14.3" font-family="Times,serif" font-size="14.00" fill="#000000">D</text>
</g>
<!-- A&#45;&gt;D -->
<g id="edge4" class="edge">
<title>A&#45;&gt;D</title>
<path fill="none" stroke="#000000" d="M804.8025,-1313.4478C694.2616,-1310.9565 278.6305,-1299.1243 154,-1260 78.3636,-1236.2561 0,-1249.2757 0,-1170 0,-1170 0,-1170 0,-162 0,-107.2846 36.3303,-98.8585 84,-72 121.5006,-50.871 243.2025,-31.6357 305.1084,-22.9202"/>
<polygon fill="#000000" stroke="#000000" points="305.8009,-26.3577 315.2241,-21.5149 304.8376,-19.4243 305.8009,-26.3577"/>
</g>
<!-- S -->
<g id="node9" class="node">
<title>S</title>
<ellipse fill="none" stroke="#000000" cx="228" cy="-1170" rx="27" ry="18"/>
<text text-anchor="middle" x="228" y="-1166.3" font-family="Times,serif" font-size="14.00" fill="#000000">S</text>
</g>
<!-- C&#45;&gt;S -->
<g id="edge8" class="edge">
<title>C&#45;&gt;S</title>
<path fill="none" stroke="#000000" d="M199.0055,-1224.937C203.4828,-1216.4537 208.9952,-1206.0092 214.007,-1196.513"/>
<polygon fill="#000000" stroke="#000000" points="217.2229,-1197.9182 218.7952,-1187.4407 211.0322,-1194.6509 217.2229,-1197.9182"/>
</g>
<!-- E -->
<g id="node10" class="node">
<title>E</title>
<ellipse fill="none" stroke="#000000" cx="625" cy="-378" rx="27" ry="18"/>
<text text-anchor="middle" x="625" y="-374.3" font-family="Times,serif" font-size="14.00" fill="#000000">E</text>
</g>
<!-- C&#45;&gt;E -->
<g id="edge9" class="edge">
<title>C&#45;&gt;E</title>
<path fill="none" stroke="#000000" d="M216.4919,-1238.4069C290.4447,-1226.7283 498.2506,-1182.2331 568,-1044 600.4371,-979.7145 570,-954.0055 570,-882 570,-882 570,-882 570,-810 570,-702.959 598.2462,-679.1067 627,-576 640.5178,-527.5272 653.3557,-517.7384 661,-468 663.4305,-452.1857 665.6365,-447.3135 661,-432 657.7339,-421.2127 651.5236,-410.6108 645.1687,-401.6963"/>
<polygon fill="#000000" stroke="#000000" points="647.9513,-399.5732 639.1229,-393.7156 642.3715,-403.8001 647.9513,-399.5732"/>
</g>
<!-- N -->
<g id="node11" class="node">
<title>N</title>
<ellipse fill="none" stroke="#000000" cx="190" cy="-162" rx="27" ry="18"/>
<text text-anchor="middle" x="190" y="-158.3" font-family="Times,serif" font-size="14.00" fill="#000000">N</text>
</g>
<!-- C&#45;&gt;N -->
<g id="edge10" class="edge">
<title>C&#45;&gt;N</title>
<path fill="none" stroke="#000000" d="M170.1427,-1229.6058C137.481,-1207.5062 76,-1157.9455 76,-1098 76,-1098 76,-1098 76,-306 76,-250.9719 127.808,-204.6947 161.5729,-180.3777"/>
<polygon fill="#000000" stroke="#000000" points="163.9472,-182.9888 170.1427,-174.3942 159.9398,-177.2493 163.9472,-182.9888"/>
</g>
<!-- J&#45;&gt;Z -->
<g id="edge29" class="edge">
<title>J&#45;&gt;Z</title>
<path fill="none" stroke="#000000" d="M859.8541,-1042.3594C877.3399,-1068.1497 908,-1120.4375 908,-1170 908,-1242 908,-1242 908,-1242 908,-1283.3978 911.6618,-1295.9426 932,-1332 938.9626,-1344.3439 949.4102,-1355.9568 959.1184,-1365.2271"/>
<polygon fill="#000000" stroke="#000000" points="956.9235,-1367.9628 966.6649,-1372.1288 961.6477,-1362.7973 956.9235,-1367.9628"/>
</g>
<!-- U -->
<g id="node8" class="node">
<title>U</title>
<ellipse fill="none" stroke="#000000" cx="435" cy="-234" rx="27" ry="18"/>
<text text-anchor="middle" x="435" y="-230.3" font-family="Times,serif" font-size="14.00" fill="#000000">U</text>
</g>
<!-- J&#45;&gt;U -->
<g id="edge30" class="edge">
<title>J&#45;&gt;U</title>
<path fill="none" stroke="#000000" d="M861.4447,-1010.0535C869.32,-999.8289 878.7264,-985.9066 884,-972 955.5849,-783.2279 946,-723.8893 946,-522 946,-522 946,-522 946,-378 946,-328.6236 587.9734,-261.0154 471.2867,-240.292"/>
<polygon fill="#000000" stroke="#000000" points="471.8539,-236.8381 461.3975,-238.5455 470.6364,-243.7314 471.8539,-236.8381"/>
</g>
<!-- Q -->
<g id="node22" class="node">
<title>Q</title>
<ellipse fill="none" stroke="#000000" cx="848" cy="-954" rx="27" ry="18"/>
<text text-anchor="middle" x="848" y="-950.3" font-family="Times,serif" font-size="14.00" fill="#000000">Q</text>
</g>
<!-- J&#45;&gt;Q -->
<g id="edge31" class="edge">
<title>J&#45;&gt;Q</title>
<path fill="none" stroke="#000000" d="M842.0843,-1008.2022C841.2798,-1000.1807 841.0571,-990.5231 841.4162,-981.5957"/>
<polygon fill="#000000" stroke="#000000" points="844.9097,-981.8099 842.105,-971.593 837.9262,-981.3289 844.9097,-981.8099"/>
</g>
<!-- D&#45;&gt;Z -->
<g id="edge11" class="edge">
<title>D&#45;&gt;Z</title>
<path fill="none" stroke="#000000" d="M369.2091,-19.7606C512.5988,-29.3919 1174,-78.351 1174,-162 1174,-1242 1174,-1242 1174,-1242 1174,-1318.7596 1074.285,-1359.8769 1019.3305,-1376.7089"/>
<polygon fill="#000000" stroke="#000000" points="1018.2252,-1373.3857 1009.6242,-1379.5723 1020.2059,-1380.0997 1018.2252,-1373.3857"/>
</g>
<!-- D&#45;&gt;C -->
<g id="edge12" class="edge">
<title>D&#45;&gt;C</title>
<path fill="none" stroke="#000000" d="M316.604,-24.2047C243.5407,-42.7896 38,-100.5346 38,-162 38,-1098 38,-1098 38,-1098 38,-1143.7584 55.3188,-1155.9724 88,-1188 107.3595,-1206.9724 134.7419,-1220.9727 156.2617,-1229.9578"/>
<polygon fill="#000000" stroke="#000000" points="155.1023,-1233.2637 165.6868,-1233.733 157.7052,-1226.7656 155.1023,-1233.2637"/>
</g>
<!-- F -->
<g id="node12" class="node">
<title>F</title>
<ellipse fill="none" stroke="#000000" cx="511" cy="-522" rx="27" ry="18"/>
<text text-anchor="middle" x="511" y="-518.3" font-family="Times,serif" font-size="14.00" fill="#000000">F</text>
</g>
<!-- D&#45;&gt;F -->
<g id="edge13" class="edge">
<title>D&#45;&gt;F</title>
<path fill="none" stroke="#000000" d="M342,-36.1854C342,-63.5017 342,-116.75 342,-162 342,-234 342,-234 342,-234 342,-347.4411 440.7412,-455.7284 487.2732,-500.4608"/>
<polygon fill="#000000" stroke="#000000" points="485.1251,-503.2466 494.7956,-507.5749 489.9349,-498.1608 485.1251,-503.2466"/>
</g>
<!-- B -->
<g id="node6" class="node">
<title>B</title>
<ellipse fill="none" stroke="#000000" cx="566" cy="-306" rx="27" ry="18"/>
<text text-anchor="middle" x="566" y="-302.3" font-family="Times,serif" font-size="14.00" fill="#000000">B</text>
</g>
<!-- B&#45;&gt;Z -->
<g id="edge5" class="edge">
<title>B&#45;&gt;Z</title>
<path fill="none" stroke="#000000" d="M592.106,-310.6685C626.3098,-317.6005 687.3027,-332.8149 733,-360 954.3177,-491.6607 1098,-552.481 1098,-810 1098,-1242 1098,-1242 1098,-1242 1098,-1297.0281 1046.192,-1343.3053 1012.4271,-1367.6223"/>
<polygon fill="#000000" stroke="#000000" points="1010.0528,-1365.0112 1003.8573,-1373.6058 1014.0602,-1370.7507 1010.0528,-1365.0112"/>
</g>
<!-- M -->
<g id="node7" class="node">
<title>M</title>
<ellipse fill="none" stroke="#000000" cx="621" cy="-234" rx="27" ry="18"/>
<text text-anchor="middle" x="621" y="-230.3" font-family="Times,serif" font-size="14.00" fill="#000000">M</text>
</g>
<!-- B&#45;&gt;M -->
<g id="edge6" class="edge">
<title>B&#45;&gt;M</title>
<path fill="none" stroke="#000000" d="M578.4804,-289.6621C585.5124,-280.4564 594.4347,-268.7764 602.2883,-258.4953"/>
<polygon fill="#000000" stroke="#000000" points="605.28,-260.3446 608.569,-250.2733 599.7172,-256.0953 605.28,-260.3446"/>
</g>
<!-- B&#45;&gt;U -->
<g id="edge7" class="edge">
<title>B&#45;&gt;U</title>
<path fill="none" stroke="#000000" d="M544.9526,-294.432C523.2758,-282.518 489.3005,-263.8446 464.853,-250.4077"/>
<polygon fill="#000000" stroke="#000000" points="466.4446,-247.2888 455.9952,-245.5393 463.0729,-253.4233 466.4446,-247.2888"/>
</g>
<!-- M&#45;&gt;Z -->
<g id="edge38" class="edge">
<title>M&#45;&gt;Z</title>
<path fill="none" stroke="#000000" d="M648.0721,-236.0418C725.1417,-242.1221 944.4486,-261.3564 1011,-288 1074.5535,-313.4434 1136,-309.5426 1136,-378 1136,-1242 1136,-1242 1136,-1242 1136,-1307.1916 1061.4029,-1351.7142 1016.7267,-1372.533"/>
<polygon fill="#000000" stroke="#000000" points="1015.0938,-1369.4299 1007.4169,-1376.7317 1017.9716,-1375.811 1015.0938,-1369.4299"/>
</g>
<!-- M&#45;&gt;J -->
<g id="edge39" class="edge">
<title>M&#45;&gt;J</title>
<path fill="none" stroke="#000000" d="M647.8935,-236.3027C717.9487,-242.6123 904.47,-261.491 960,-288 1013.9606,-313.7598 1060,-318.2061 1060,-378 1060,-738 1060,-738 1060,-738 1060,-858.7385 1003.1106,-882.5637 922,-972 909.0821,-986.2438 891.8599,-999.0784 877.2806,-1008.6576"/>
<polygon fill="#000000" stroke="#000000" points="875.1591,-1005.8592 868.6066,-1014.1848 878.9208,-1011.7626 875.1591,-1005.8592"/>
</g>
<!-- P -->
<g id="node24" class="node">
<title>P</title>
<ellipse fill="none" stroke="#000000" cx="528" cy="-162" rx="27" ry="18"/>
<text text-anchor="middle" x="528" y="-158.3" font-family="Times,serif" font-size="14.00" fill="#000000">P</text>
</g>
<!-- M&#45;&gt;P -->
<g id="edge40" class="edge">
<title>M&#45;&gt;P</title>
<path fill="none" stroke="#000000" d="M603.0687,-220.1177C589.1736,-209.3602 569.7219,-194.3009 554.1009,-182.2072"/>
<polygon fill="#000000" stroke="#000000" points="555.9262,-179.1939 545.8763,-175.8397 551.6409,-184.729 555.9262,-179.1939"/>
</g>
<!-- U&#45;&gt;C -->
<g id="edge62" class="edge">
<title>U&#45;&gt;C</title>
<path fill="none" stroke="#000000" d="M408.518,-237.9834C376.992,-243.9365 324.3071,-257.8595 290,-288 150.7794,-410.3125 114,-480.6821 114,-666 114,-1098 114,-1098 114,-1098 114,-1145.1373 146.2452,-1191.9634 168.7287,-1218.8844"/>
<polygon fill="#000000" stroke="#000000" points="166.172,-1221.2793 175.3464,-1226.5784 171.479,-1216.7146 166.172,-1221.2793"/>
</g>
<!-- U&#45;&gt;N -->
<g id="edge63" class="edge">
<title>U&#45;&gt;N</title>
<path fill="none" stroke="#000000" d="M412.6941,-223.4598C406.6977,-220.833 400.1644,-218.1545 394,-216 336.1322,-195.7752 266.7626,-178.92 225.6466,-169.6694"/>
<polygon fill="#000000" stroke="#000000" points="226.3478,-166.2399 215.8263,-167.484 224.8272,-173.0728 226.3478,-166.2399"/>
</g>
<!-- Y -->
<g id="node25" class="node">
<title>Y</title>
<ellipse fill="none" stroke="#000000" cx="435" cy="-90" rx="27" ry="18"/>
<text text-anchor="middle" x="435" y="-86.3" font-family="Times,serif" font-size="14.00" fill="#000000">Y</text>
</g>
<!-- U&#45;&gt;Y -->
<g id="edge64" class="edge">
<title>U&#45;&gt;Y</title>
<path fill="none" stroke="#000000" d="M430.3562,-216.0535C427.8728,-191.5852 427.5855,-147.4896 429.4943,-118.4799"/>
<polygon fill="#000000" stroke="#000000" points="433.0103,-118.4238 430.3333,-108.1727 426.0334,-117.8557 433.0103,-118.4238"/>
</g>
<!-- V -->
<g id="node15" class="node">
<title>V</title>
<ellipse fill="none" stroke="#000000" cx="437" cy="-1098" rx="27" ry="18"/>
<text text-anchor="middle" x="437" y="-1094.3" font-family="Times,serif" font-size="14.00" fill="#000000">V</text>
</g>
<!-- S&#45;&gt;V -->
<g id="edge56" class="edge">
<title>S&#45;&gt;V</title>
<path fill="none" stroke="#000000" d="M252.384,-1161.5998C289.6672,-1148.7558 360.9531,-1124.198 403.2024,-1109.6432"/>
<polygon fill="#000000" stroke="#000000" points="404.4566,-1112.9131 412.7713,-1106.3467 402.1766,-1106.2948 404.4566,-1112.9131"/>
</g>
<!-- S&#45;&gt;P -->
<g id="edge57" class="edge">
<title>S&#45;&gt;P</title>
<path fill="none" stroke="#000000" d="M235.6899,-1152.6554C246.7936,-1125.9874 266,-1073.0576 266,-1026 266,-1026 266,-1026 266,-882 266,-784.5257 228,-763.4743 228,-666 228,-666 228,-666 228,-522 228,-398.7061 281.5008,-365.9827 377,-288 411.6516,-259.7042 436.3829,-280.338 471,-252 491.6621,-235.0858 507.148,-208.6245 516.7244,-188.7643"/>
<polygon fill="#000000" stroke="#000000" points="519.9341,-190.162 520.9476,-179.6158 513.5785,-187.2281 519.9341,-190.162"/>
</g>
<!-- T -->
<g id="node26" class="node">
<title>T</title>
<ellipse fill="none" stroke="#000000" cx="210" cy="-954" rx="27" ry="18"/>
<text text-anchor="middle" x="210" y="-950.3" font-family="Times,serif" font-size="14.00" fill="#000000">T</text>
</g>
<!-- S&#45;&gt;T -->
<g id="edge58" class="edge">
<title>S&#45;&gt;T</title>
<path fill="none" stroke="#000000" d="M226.4963,-1151.9555C223.3595,-1114.3144 216.0989,-1027.1867 212.3437,-982.1246"/>
<polygon fill="#000000" stroke="#000000" points="215.8305,-981.8198 211.5121,-972.1451 208.8547,-982.4012 215.8305,-981.8198"/>
</g>
<!-- E&#45;&gt;B -->
<g id="edge14" class="edge">
<title>E&#45;&gt;B</title>
<path fill="none" stroke="#000000" d="M611.906,-362.0209C604.1911,-352.6061 594.2811,-340.5126 585.6445,-329.973"/>
<polygon fill="#000000" stroke="#000000" points="588.1029,-327.4509 579.0574,-321.9345 582.6885,-331.8877 588.1029,-327.4509"/>
</g>
<!-- O -->
<g id="node13" class="node">
<title>O</title>
<ellipse fill="none" stroke="#000000" cx="451" cy="-306" rx="27" ry="18"/>
<text text-anchor="middle" x="451" y="-302.3" font-family="Times,serif" font-size="14.00" fill="#000000">O</text>
</g>
<!-- E&#45;&gt;O -->
<g id="edge15" class="edge">
<title>E&#45;&gt;O</title>
<path fill="none" stroke="#000000" d="M602.514,-367.9316C596.5189,-365.3011 590.0313,-362.5028 584,-360 543.4452,-343.1713 532.5548,-340.8287 492,-324 488.9843,-322.7486 485.8546,-321.4233 482.7294,-320.0821"/>
<polygon fill="#000000" stroke="#000000" points="484.0527,-316.841 473.486,-316.0684 481.2646,-323.2618 484.0527,-316.841"/>
</g>
<!-- I -->
<g id="node14" class="node">
<title>I</title>
<ellipse fill="none" stroke="#000000" cx="843" cy="-882" rx="27" ry="18"/>
<text text-anchor="middle" x="843" y="-878.3" font-family="Times,serif" font-size="14.00" fill="#000000">I</text>
</g>
<!-- E&#45;&gt;I -->
<g id="edge16" class="edge">
<title>E&#45;&gt;I</title>
<path fill="none" stroke="#000000" d="M646.856,-388.8756C700.4103,-415.7407 834.6571,-484.476 846,-504 912.8117,-618.9993 871.9626,-788.8104 852.0387,-854.5834"/>
<polygon fill="#000000" stroke="#000000" points="848.6687,-853.6337 849.0404,-864.222 855.3528,-855.713 848.6687,-853.6337"/>
</g>
<!-- N&#45;&gt;S -->
<g id="edge41" class="edge">
<title>N&#45;&gt;S</title>
<path fill="none" stroke="#000000" d="M175.3464,-177.4216C153.2617,-202.3517 114,-253.9864 114,-306 114,-450 114,-450 114,-450 114,-547.4743 152,-568.5257 152,-666 152,-810 152,-810 152,-810 152,-936.545 197.5121,-1082.8199 218.0972,-1142.5082"/>
<polygon fill="#000000" stroke="#000000" points="214.9163,-1144.0153 221.5203,-1152.3001 221.5242,-1141.7052 214.9163,-1144.0153"/>
</g>
<!-- N&#45;&gt;V -->
<g id="edge42" class="edge">
<title>N&#45;&gt;V</title>
<path fill="none" stroke="#000000" d="M196.4797,-179.6999C214.8586,-231.5439 266,-387.8571 266,-522 266,-666 266,-666 266,-666 266,-763.4743 304,-784.5257 304,-882 304,-954 304,-954 304,-954 304,-1013.8613 366.7908,-1059.4448 406.0848,-1082.11"/>
<polygon fill="#000000" stroke="#000000" points="404.6012,-1085.2903 415.0378,-1087.1147 408.0168,-1079.1802 404.6012,-1085.2903"/>
</g>
<!-- X -->
<g id="node21" class="node">
<title>X</title>
<ellipse fill="none" stroke="#000000" cx="663" cy="-594" rx="27" ry="18"/>
<text text-anchor="middle" x="663" y="-590.3" font-family="Times,serif" font-size="14.00" fill="#000000">X</text>
</g>
<!-- N&#45;&gt;X -->
<g id="edge43" class="edge">
<title>N&#45;&gt;X</title>
<path fill="none" stroke="#000000" d="M205.9303,-176.7251C256.5848,-223.6603 418.1883,-374.2695 547,-504 562.5065,-519.6171 564.1414,-525.8532 581,-540 597.2638,-553.6476 617.1128,-566.798 633.2083,-576.7043"/>
<polygon fill="#000000" stroke="#000000" points="631.8281,-579.9599 642.1959,-582.1413 635.4514,-573.9706 631.8281,-579.9599"/>
</g>
<!-- F&#45;&gt;V -->
<g id="edge17" class="edge">
<title>F&#45;&gt;V</title>
<path fill="none" stroke="#000000" d="M505.218,-539.6382C491.097,-584.3365 456,-705.9021 456,-810 456,-954 456,-954 456,-954 456,-994.4718 448.532,-1040.7963 442.96,-1069.7275"/>
<polygon fill="#000000" stroke="#000000" points="439.4517,-1069.4254 440.9368,-1079.9156 446.3177,-1070.7889 439.4517,-1069.4254"/>
</g>
<!-- G -->
<g id="node16" class="node">
<title>G</title>
<ellipse fill="none" stroke="#000000" cx="625" cy="-450" rx="27" ry="18"/>
<text text-anchor="middle" x="625" y="-446.3" font-family="Times,serif" font-size="14.00" fill="#000000">G</text>
</g>
<!-- F&#45;&gt;G -->
<g id="edge18" class="edge">
<title>F&#45;&gt;G</title>
<path fill="none" stroke="#000000" d="M528.019,-507.7751C545.613,-495.6546 573.0936,-478.2591 594.4085,-465.7268"/>
<polygon fill="#000000" stroke="#000000" points="596.219,-468.723 603.1192,-460.6832 592.7114,-462.6652 596.219,-468.723"/>
</g>
<!-- H -->
<g id="node17" class="node">
<title>H</title>
<ellipse fill="none" stroke="#000000" cx="758" cy="-738" rx="27" ry="18"/>
<text text-anchor="middle" x="758" y="-734.3" font-family="Times,serif" font-size="14.00" fill="#000000">H</text>
</g>
<!-- F&#45;&gt;H -->
<g id="edge19" class="edge">
<title>F&#45;&gt;H</title>
<path fill="none" stroke="#000000" d="M527.5177,-536.4446C570.0613,-573.6487 683.5569,-672.9 733.6557,-716.7111"/>
<polygon fill="#000000" stroke="#000000" points="731.5784,-719.544 741.4101,-723.4922 736.1864,-714.2746 731.5784,-719.544"/>
</g>
<!-- O&#45;&gt;M -->
<g id="edge44" class="edge">
<title>O&#45;&gt;M</title>
<path fill="none" stroke="#000000" d="M473.927,-296.2898C503.5401,-283.7477 555.2546,-261.8451 588.801,-247.6372"/>
<polygon fill="#000000" stroke="#000000" points="590.3223,-250.794 598.1654,-243.6711 587.5923,-244.3482 590.3223,-250.794"/>
</g>
<!-- O&#45;&gt;U -->
<g id="edge45" class="edge">
<title>O&#45;&gt;U</title>
<path fill="none" stroke="#000000" d="M446.9625,-287.8314C445.2059,-279.9266 443.1083,-270.4872 441.1637,-261.7365"/>
<polygon fill="#000000" stroke="#000000" points="444.5668,-260.916 438.9808,-251.9134 437.7335,-262.4346 444.5668,-260.916"/>
</g>
<!-- O&#45;&gt;V -->
<g id="edge46" class="edge">
<title>O&#45;&gt;V</title>
<path fill="none" stroke="#000000" d="M441.2766,-323.0106C421.8315,-358.6818 380,-444.4338 380,-522 380,-954 380,-954 380,-954 380,-995.3978 387.7046,-1005.9443 404,-1044 408.2815,-1053.999 414.1868,-1064.3402 419.8196,-1073.2635"/>
<polygon fill="#000000" stroke="#000000" points="416.8954,-1075.1869 425.2913,-1081.649 422.7577,-1071.3616 416.8954,-1075.1869"/>
</g>
<!-- I&#45;&gt;H -->
<g id="edge26" class="edge">
<title>I&#45;&gt;H</title>
<path fill="none" stroke="#000000" d="M833.0831,-865.1995C818.383,-840.2958 790.6854,-793.373 773.3514,-764.0071"/>
<polygon fill="#000000" stroke="#000000" points="776.2146,-761.9723 768.1172,-755.1398 770.1865,-765.5306 776.2146,-761.9723"/>
</g>
<!-- W -->
<g id="node20" class="node">
<title>W</title>
<ellipse fill="none" stroke="#000000" cx="739" cy="-810" rx="27" ry="18"/>
<text text-anchor="middle" x="739" y="-806.3" font-family="Times,serif" font-size="14.00" fill="#000000">W</text>
</g>
<!-- I&#45;&gt;W -->
<g id="edge27" class="edge">
<title>I&#45;&gt;W</title>
<path fill="none" stroke="#000000" d="M823.9248,-868.7941C807.7987,-857.6298 784.4959,-841.4971 766.3779,-828.9539"/>
<polygon fill="#000000" stroke="#000000" points="768.1685,-825.9367 757.9543,-823.1222 764.184,-831.692 768.1685,-825.9367"/>
</g>
<!-- I&#45;&gt;X -->
<g id="edge28" class="edge">
<title>I&#45;&gt;X</title>
<path fill="none" stroke="#000000" d="M841.475,-863.9667C837.984,-832.0751 826.981,-764.863 794,-720 777.1334,-697.0569 762.2822,-702.9191 741,-684 718.3851,-663.8963 696.1365,-637.3663 681.2257,-618.3269"/>
<polygon fill="#000000" stroke="#000000" points="683.9941,-616.1854 675.1107,-610.4117 678.4546,-620.465 683.9941,-616.1854"/>
</g>
<!-- V&#45;&gt;J -->
<g id="edge65" class="edge">
<title>V&#45;&gt;J</title>
<path fill="none" stroke="#000000" d="M463.3351,-1093.3865C534.3804,-1080.9407 730.0926,-1046.6553 811.6157,-1032.3739"/>
<polygon fill="#000000" stroke="#000000" points="812.6382,-1035.7482 821.8842,-1030.575 811.4302,-1028.8532 812.6382,-1035.7482"/>
</g>
<!-- V&#45;&gt;B -->
<g id="edge66" class="edge">
<title>V&#45;&gt;B</title>
<path fill="none" stroke="#000000" d="M433.0632,-1079.9156C427.498,-1052.7281 418,-999.6422 418,-954 418,-954 418,-954 418,-738 418,-630.959 433.934,-602.8502 475,-504 482.1938,-486.6837 488.4143,-484.6701 497,-468 520.6185,-422.1418 543.0791,-366.3549 555.6469,-333.6514"/>
<polygon fill="#000000" stroke="#000000" points="559.0777,-334.4772 559.3687,-323.8863 552.5367,-331.9841 559.0777,-334.4772"/>
</g>
<!-- R -->
<g id="node19" class="node">
<title>R</title>
<ellipse fill="none" stroke="#000000" cx="777" cy="-666" rx="27" ry="18"/>
<text text-anchor="middle" x="777" y="-662.3" font-family="Times,serif" font-size="14.00" fill="#000000">R</text>
</g>
<!-- V&#45;&gt;R -->
<g id="edge67" class="edge">
<title>V&#45;&gt;R</title>
<path fill="none" stroke="#000000" d="M463.4804,-1093.5523C509.1208,-1085.3707 599.8473,-1066.6773 622,-1044 650.9282,-1014.3869 646,-995.3978 646,-954 646,-954 646,-954 646,-810 646,-750.5514 707.8465,-704.8135 746.5497,-682.0113"/>
<polygon fill="#000000" stroke="#000000" points="748.4207,-684.9733 755.368,-676.9742 744.9487,-678.895 748.4207,-684.9733"/>
</g>
<!-- G&#45;&gt;A -->
<g id="edge20" class="edge">
<title>G&#45;&gt;A</title>
<path fill="none" stroke="#000000" d="M647.1951,-460.3449C730.8011,-501.009 1022,-658.6719 1022,-882 1022,-1026 1022,-1026 1022,-1026 1022,-1143.982 909.5285,-1250.8996 857.6536,-1293.9384"/>
<polygon fill="#000000" stroke="#000000" points="855.4075,-1291.2538 849.8747,-1300.2893 859.8345,-1296.6762 855.4075,-1291.2538"/>
</g>
<!-- G&#45;&gt;E -->
<g id="edge21" class="edge">
<title>G&#45;&gt;E</title>
<path fill="none" stroke="#000000" d="M625,-431.8314C625,-424.131 625,-414.9743 625,-406.4166"/>
<polygon fill="#000000" stroke="#000000" points="628.5001,-406.4132 625,-396.4133 621.5001,-406.4133 628.5001,-406.4132"/>
</g>
<!-- G&#45;&gt;F -->
<g id="edge22" class="edge">
<title>G&#45;&gt;F</title>
<path fill="none" stroke="#000000" d="M607.8218,-464.3345C590.2599,-476.4237 562.9618,-493.703 541.7309,-506.1912"/>
<polygon fill="#000000" stroke="#000000" points="539.9476,-503.1793 533.0494,-511.2209 543.4567,-509.2363 539.9476,-503.1793"/>
</g>
<!-- H&#45;&gt;V -->
<g id="edge23" class="edge">
<title>H&#45;&gt;V</title>
<path fill="none" stroke="#000000" d="M739.6376,-751.3067C727.3856,-761.1701 711.9389,-775.6884 703,-792 683.3532,-827.8512 684,-841.1184 684,-882 684,-954 684,-954 684,-954 684,-995.3978 689.6077,-1015.0662 660,-1044 633.7833,-1069.6199 530.0039,-1086.3123 473.7356,-1093.6719"/>
<polygon fill="#000000" stroke="#000000" points="473.2883,-1090.2005 463.8114,-1094.9375 474.1739,-1097.1443 473.2883,-1090.2005"/>
</g>
<!-- L -->
<g id="node18" class="node">
<title>L</title>
<ellipse fill="none" stroke="#000000" cx="697" cy="-378" rx="27" ry="18"/>
<text text-anchor="middle" x="697" y="-374.3" font-family="Times,serif" font-size="14.00" fill="#000000">L</text>
</g>
<!-- H&#45;&gt;L -->
<g id="edge24" class="edge">
<title>H&#45;&gt;L</title>
<path fill="none" stroke="#000000" d="M777.454,-725.2197C790.2068,-715.5977 805.8032,-701.1517 813,-684 819.1907,-669.2462 816.2241,-663.6718 813,-648 793.476,-553.096 739.0789,-450.4069 712.2957,-403.7145"/>
<polygon fill="#000000" stroke="#000000" points="715.2182,-401.7771 707.1738,-394.8823 709.1627,-405.2888 715.2182,-401.7771"/>
</g>
<!-- H&#45;&gt;R -->
<g id="edge25" class="edge">
<title>H&#45;&gt;R</title>
<path fill="none" stroke="#000000" d="M762.6966,-720.2022C764.7976,-712.2406 767.324,-702.6671 769.665,-693.7957"/>
<polygon fill="#000000" stroke="#000000" points="773.1241,-694.4046 772.2916,-683.8425 766.3558,-692.6185 773.1241,-694.4046"/>
</g>
<!-- L&#45;&gt;B -->
<g id="edge35" class="edge">
<title>L&#45;&gt;B</title>
<path fill="none" stroke="#000000" d="M675.9526,-366.432C654.2758,-354.518 620.3005,-335.8446 595.853,-322.4077"/>
<polygon fill="#000000" stroke="#000000" points="597.4446,-319.2888 586.9952,-317.5393 594.0729,-325.4233 597.4446,-319.2888"/>
</g>
<!-- L&#45;&gt;N -->
<g id="edge36" class="edge">
<title>L&#45;&gt;N</title>
<path fill="none" stroke="#000000" d="M675.9897,-366.6356C671.1465,-364.2586 665.9591,-361.9002 661,-360 604.6168,-338.3954 583.4845,-352.022 530,-324 507.9221,-312.4328 508.3437,-300.8717 487,-288 450.8137,-266.1773 437.963,-268.3573 399,-252 336.1072,-225.5966 262.9806,-193.8696 222.033,-176.0102"/>
<polygon fill="#000000" stroke="#000000" points="223.3923,-172.7847 212.8272,-171.9922 220.5921,-179.2003 223.3923,-172.7847"/>
</g>
<!-- L&#45;&gt;O -->
<g id="edge37" class="edge">
<title>L&#45;&gt;O</title>
<path fill="none" stroke="#000000" d="M676.0688,-366.42C671.2215,-364.0542 666.0124,-361.7548 661,-360 588.5174,-334.6238 565.0938,-347.5579 492,-324 488.8924,-322.9984 485.7009,-321.841 482.5367,-320.6058"/>
<polygon fill="#000000" stroke="#000000" points="483.8148,-317.3468 473.2371,-316.7451 481.1308,-323.8119 483.8148,-317.3468"/>
</g>
<!-- R&#45;&gt;Z -->
<g id="edge53" class="edge">
<title>R&#45;&gt;Z</title>
<path fill="none" stroke="#000000" d="M793.2429,-680.7032C842.0413,-726.5757 984,-873.1576 984,-1026 984,-1242 984,-1242 984,-1242 984,-1282.124 984,-1328.5369 984,-1357.5823"/>
<polygon fill="#000000" stroke="#000000" points="980.5001,-1357.8146 984,-1367.8146 987.5001,-1357.8147 980.5001,-1357.8146"/>
</g>
<!-- R&#45;&gt;O -->
<g id="edge54" class="edge">
<title>R&#45;&gt;O</title>
<path fill="none" stroke="#000000" d="M763.8466,-650.0539C748.6345,-631.7958 722.646,-601.1628 699,-576 652.0817,-526.0721 633.9736,-519.6865 589,-468 549.7893,-422.9365 548.8049,-404.5395 509,-360 498.699,-348.4738 486.2674,-336.663 475.5598,-327.0378"/>
<polygon fill="#000000" stroke="#000000" points="477.5794,-324.1513 467.7715,-320.1443 472.9399,-329.393 477.5794,-324.1513"/>
</g>
<!-- R&#45;&gt;X -->
<g id="edge55" class="edge">
<title>R&#45;&gt;X</title>
<path fill="none" stroke="#000000" d="M757.1427,-653.4586C738.916,-641.9469 711.7146,-624.7671 691.2311,-611.8302"/>
<polygon fill="#000000" stroke="#000000" points="692.9536,-608.7785 682.6297,-606.3977 689.2156,-614.6969 692.9536,-608.7785"/>
</g>
<!-- W&#45;&gt;C -->
<g id="edge68" class="edge">
<title>W&#45;&gt;C</title>
<path fill="none" stroke="#000000" d="M743.3512,-828.0621C749.5022,-855.2213 760,-908.2714 760,-954 760,-1098 760,-1098 760,-1098 760,-1139.3978 767.5455,-1161.1922 736,-1188 697.2871,-1220.8988 343.9079,-1236.4669 227.2078,-1240.7419"/>
<polygon fill="#000000" stroke="#000000" points="226.8547,-1237.2522 216.9869,-1241.1094 227.1063,-1244.2477 226.8547,-1237.2522"/>
</g>
<!-- W&#45;&gt;H -->
<g id="edge69" class="edge">
<title>W&#45;&gt;H</title>
<path fill="none" stroke="#000000" d="M743.6966,-792.2022C745.7976,-784.2406 748.324,-774.6671 750.665,-765.7957"/>
<polygon fill="#000000" stroke="#000000" points="754.1241,-766.4046 753.2916,-755.8425 747.3558,-764.6185 754.1241,-766.4046"/>
</g>
<!-- W&#45;&gt;X -->
<g id="edge70" class="edge">
<title>W&#45;&gt;X</title>
<path fill="none" stroke="#000000" d="M732.7806,-792.3238C719.5262,-754.6534 688.4199,-666.2461 672.6014,-621.2881"/>
<polygon fill="#000000" stroke="#000000" points="675.8195,-619.8889 669.1987,-611.6175 669.2163,-622.2123 675.8195,-619.8889"/>
</g>
<!-- X&#45;&gt;F -->
<g id="edge71" class="edge">
<title>X&#45;&gt;F</title>
<path fill="none" stroke="#000000" d="M640.8979,-583.5306C615.0066,-571.2663 571.9209,-550.8573 542.5275,-536.9341"/>
<polygon fill="#000000" stroke="#000000" points="543.6645,-533.5999 533.1288,-532.4821 540.6678,-539.9261 543.6645,-533.5999"/>
</g>
<!-- X&#45;&gt;O -->
<g id="edge72" class="edge">
<title>X&#45;&gt;O</title>
<path fill="none" stroke="#000000" d="M648.8123,-578.6245C627.6539,-555.4072 587.0021,-509.678 556,-468 521.59,-421.7406 486.0142,-364.5033 466.3761,-331.9283"/>
<polygon fill="#000000" stroke="#000000" points="469.1882,-329.8122 461.0429,-323.0369 463.1853,-333.4129 469.1882,-329.8122"/>
</g>
<!-- X&#45;&gt;V -->
<g id="edge73" class="edge">
<title>X&#45;&gt;V</title>
<path fill="none" stroke="#000000" d="M655.3525,-611.535C640.24,-647.8323 608,-734.1547 608,-810 608,-954 608,-954 608,-954 608,-997.7727 599.3706,-1013.4723 568,-1044 541.857,-1069.4405 502.0458,-1083.5269 473.1729,-1090.8768"/>
<polygon fill="#000000" stroke="#000000" points="471.9894,-1087.561 463.0761,-1093.2884 473.6156,-1094.3695 471.9894,-1087.561"/>
</g>
<!-- Q&#45;&gt;Z -->
<g id="edge50" class="edge">
<title>Q&#45;&gt;Z</title>
<path fill="none" stroke="#000000" d="M865.9747,-967.7954C894.2665,-991.2234 946,-1041.7531 946,-1098 946,-1242 946,-1242 946,-1242 946,-1284.0945 961.3687,-1330.8878 972.5585,-1359.3788"/>
<polygon fill="#000000" stroke="#000000" points="969.3162,-1360.6971 976.3101,-1368.6554 975.8056,-1358.0726 969.3162,-1360.6971"/>
</g>
<!-- Q&#45;&gt;J -->
<g id="edge51" class="edge">
<title>Q&#45;&gt;J</title>
<path fill="none" stroke="#000000" d="M853.895,-971.593C854.7094,-979.5865 854.942,-989.2363 854.5928,-998.1759"/>
<polygon fill="#000000" stroke="#000000" points="851.0976,-997.9891 853.9157,-1008.2022 858.0817,-998.4608 851.0976,-997.9891"/>
</g>
<!-- Q&#45;&gt;I -->
<g id="edge52" class="edge">
<title>Q&#45;&gt;I</title>
<path fill="none" stroke="#000000" d="M846.7383,-935.8314C846.2035,-928.131 845.5677,-918.9743 844.9734,-910.4166"/>
<polygon fill="#000000" stroke="#000000" points="848.4632,-910.1467 844.2787,-900.4133 841.48,-910.6317 848.4632,-910.1467"/>
</g>
<!-- K -->
<g id="node23" class="node">
<title>K</title>
<ellipse fill="none" stroke="#000000" cx="532" cy="-1026" rx="27" ry="18"/>
<text text-anchor="middle" x="532" y="-1022.3" font-family="Times,serif" font-size="14.00" fill="#000000">K</text>
</g>
<!-- K&#45;&gt;B -->
<g id="edge32" class="edge">
<title>K&#45;&gt;B</title>
<path fill="none" stroke="#000000" d="M524.3101,-1008.6554C513.2064,-981.9874 494,-929.0576 494,-882 494,-882 494,-882 494,-810 494,-673.7381 455.2989,-638.8302 475,-504 484.657,-437.9093 485.486,-418.3445 518,-360 524.4876,-348.3584 533.8583,-337.0783 542.6015,-327.865"/>
<polygon fill="#000000" stroke="#000000" points="545.1889,-330.226 549.721,-320.6494 540.206,-325.3095 545.1889,-330.226"/>
</g>
<!-- K&#45;&gt;F -->
<g id="edge33" class="edge">
<title>K&#45;&gt;F</title>
<path fill="none" stroke="#000000" d="M532,-1007.8146C532,-980.4983 532,-927.25 532,-882 532,-882 532,-882 532,-666 532,-625.2729 523.673,-578.7384 517.5061,-549.8595"/>
<polygon fill="#000000" stroke="#000000" points="520.9177,-549.0768 515.3512,-540.0621 514.0811,-550.5806 520.9177,-549.0768"/>
</g>
<!-- K&#45;&gt;Q -->
<g id="edge34" class="edge">
<title>K&#45;&gt;Q</title>
<path fill="none" stroke="#000000" d="M557.5919,-1020.1689C613.6826,-1007.3888 747.5749,-976.8817 812.0687,-962.1869"/>
<polygon fill="#000000" stroke="#000000" points="813.1967,-965.5197 822.1692,-959.8855 811.6415,-958.6946 813.1967,-965.5197"/>
</g>
<!-- P&#45;&gt;B -->
<g id="edge47" class="edge">
<title>P&#45;&gt;B</title>
<path fill="none" stroke="#000000" d="M532.7956,-180.1727C539.3128,-204.8697 551.0268,-249.2595 558.6555,-278.1684"/>
<polygon fill="#000000" stroke="#000000" points="555.3283,-279.2775 561.2641,-288.0535 562.0966,-277.4914 555.3283,-279.2775"/>
</g>
<!-- P&#45;&gt;V -->
<g id="edge48" class="edge">
<title>P&#45;&gt;V</title>
<path fill="none" stroke="#000000" d="M527.7761,-180.0897C526.5867,-200.0114 521.7712,-231.8809 504,-252 475.7522,-283.9798 445.754,-258.4224 415,-288 358.08,-342.7427 342,-371.0276 342,-450 342,-954 342,-954 342,-954 342,-1004.9202 383.9007,-1051.7184 412.0476,-1077.4108"/>
<polygon fill="#000000" stroke="#000000" points="409.7705,-1080.0695 419.5755,-1084.0836 414.4138,-1074.8312 409.7705,-1080.0695"/>
</g>
<!-- P&#45;&gt;Y -->
<g id="edge49" class="edge">
<title>P&#45;&gt;Y</title>
<path fill="none" stroke="#000000" d="M510.0687,-148.1177C496.1736,-137.3602 476.7219,-122.3009 461.1009,-110.2072"/>
<polygon fill="#000000" stroke="#000000" points="462.9262,-107.1939 452.8763,-103.8397 458.6409,-112.729 462.9262,-107.1939"/>
</g>
<!-- Y&#45;&gt;D -->
<g id="edge74" class="edge">
<title>Y&#45;&gt;D</title>
<path fill="none" stroke="#000000" d="M417.0687,-76.1177C403.1736,-65.3602 383.7219,-50.3009 368.1009,-38.2072"/>
<polygon fill="#000000" stroke="#000000" points="369.9262,-35.1939 359.8763,-31.8397 365.6409,-40.729 369.9262,-35.1939"/>
</g>
<!-- Y&#45;&gt;U -->
<g id="edge75" class="edge">
<title>Y&#45;&gt;U</title>
<path fill="none" stroke="#000000" d="M439.6667,-108.1727C442.1365,-132.7613 442.4103,-176.8705 440.4881,-205.7871"/>
<polygon fill="#000000" stroke="#000000" points="436.9753,-205.8002 439.6438,-216.0535 443.9517,-206.374 436.9753,-205.8002"/>
</g>
<!-- Y&#45;&gt;I -->
<g id="edge76" class="edge">
<title>Y&#45;&gt;I</title>
<path fill="none" stroke="#000000" d="M462.135,-90.7421C577.58,-94.6189 1022,-117.1327 1022,-234 1022,-378 1022,-378 1022,-378 1022,-588.1264 965.896,-637.6041 877,-828 872.36,-837.9379 866.224,-848.2652 860.443,-857.1945"/>
<polygon fill="#000000" stroke="#000000" points="857.4804,-855.3288 854.8488,-865.5917 863.306,-859.2099 857.4804,-855.3288"/>
</g>
<!-- T&#45;&gt;C -->
<g id="edge59" class="edge">
<title>T&#45;&gt;C</title>
<path fill="none" stroke="#000000" d="M207.9489,-971.9877C204.0803,-1006.7258 195.7578,-1085.4887 192,-1152 190.8392,-1172.546 190.3434,-1195.7661 190.1356,-1213.4739"/>
<polygon fill="#000000" stroke="#000000" points="186.6336,-1213.6818 190.0401,-1223.7141 193.6333,-1213.7472 186.6336,-1213.6818"/>
</g>
<!-- T&#45;&gt;N -->
<g id="edge60" class="edge">
<title>T&#45;&gt;N</title>
<path fill="none" stroke="#000000" d="M205.856,-935.9265C199.9979,-908.7528 190,-855.6844 190,-810 190,-810 190,-810 190,-666 190,-568.5257 152,-547.4743 152,-450 152,-450 152,-450 152,-306 152,-263.9055 167.3687,-217.1122 178.5585,-188.6212"/>
<polygon fill="#000000" stroke="#000000" points="181.8056,-189.9274 182.3101,-179.3446 175.3162,-187.3029 181.8056,-189.9274"/>
</g>
<!-- T&#45;&gt;F -->
<g id="edge61" class="edge">
<title>T&#45;&gt;F</title>
<path fill="none" stroke="#000000" d="M216.9013,-936.3424C233.0706,-896.0355 275.9989,-794.9508 328,-720 377.0742,-649.2678 450.0895,-577.9719 487.3167,-543.43"/>
<polygon fill="#000000" stroke="#000000" points="489.7136,-545.9807 494.6959,-536.6305 484.9701,-540.8329 489.7136,-545.9807"/>
</g>
</g>
</svg>
