<?xml version="1.0" encoding="UTF-8" standalone="no"?>
<!DOCTYPE svg PUBLIC "-//W3C//DTD SVG 1.1//EN"
 "http://www.w3.org/Graphics/SVG/1.1/DTD/svg11.dtd">
<!-- Generated by graphviz version 2.40.1 (20161225.0304)
 -->
<!-- Title: %3 Pages: 1 -->
<svg width="1106pt" height="1556pt"
 viewBox="0.00 0.00 1106.00 1556.00" xmlns="http://www.w3.org/2000/svg" xmlns:xlink="http://www.w3.org/1999/xlink">
<g id="graph0" class="graph" transform="scale(1 1) rotate(0) translate(4 1552)">
<title>%3</title>
<polygon fill="#ffffff" stroke="transparent" points="-4,4 -4,-1552 1102,-1552 1102,4 -4,4"/>
<!-- Z -->
<g id="node1" class="node">
<title>Z</title>
<ellipse fill="none" stroke="#000000" cx="377" cy="-1530" rx="27" ry="18"/>
<text text-anchor="middle" x="377" y="-1526.3" font-family="Times,serif" font-size="14.00" fill="#000000">Z</text>
</g>
<!-- A -->
<g id="node2" class="node">
<title>A</title>
<ellipse fill="none" stroke="#000000" cx="377" cy="-1458" rx="27" ry="18"/>
<text text-anchor="middle" x="377" y="-1454.3" font-family="Times,serif" font-size="14.00" fill="#000000">A</text>
</g>
<!-- Z&#45;&gt;A -->
<g id="edge1" class="edge">
<title>Z&#45;&gt;A</title>
<path fill="none" stroke="#000000" d="M377,-1511.8314C377,-1504.131 377,-1494.9743 377,-1486.4166"/>
<polygon fill="#000000" stroke="#000000" points="380.5001,-1486.4132 377,-1476.4133 373.5001,-1486.4133 380.5001,-1486.4132"/>
</g>
<!-- N -->
<g id="node3" class="node">
<title>N</title>
<ellipse fill="none" stroke="#000000" cx="443" cy="-1386" rx="27" ry="18"/>
<text text-anchor="middle" x="443" y="-1382.3" font-family="Times,serif" font-size="14.00" fill="#000000">N</text>
</g>
<!-- A&#45;&gt;N -->
<g id="edge2" class="edge">
<title>A&#45;&gt;N</title>
<path fill="none" stroke="#000000" d="M391.321,-1442.3771C400.2292,-1432.659 411.8452,-1419.987 421.8075,-1409.1191"/>
<polygon fill="#000000" stroke="#000000" points="424.5297,-1411.3291 428.7069,-1401.5924 419.3696,-1406.599 424.5297,-1411.3291"/>
</g>
<!-- K -->
<g id="node4" class="node">
<title>K</title>
<ellipse fill="none" stroke="#000000" cx="595" cy="-954" rx="27" ry="18"/>
<text text-anchor="middle" x="595" y="-950.3" font-family="Times,serif" font-size="14.00" fill="#000000">K</text>
</g>
<!-- A&#45;&gt;K -->
<g id="edge3" class="edge">
<title>A&#45;&gt;K</title>
<path fill="none" stroke="#000000" d="M369.7935,-1440.561C354.1762,-1399.8548 321.5858,-1296.5305 360,-1224 373.3277,-1198.8358 392.8748,-1208.1455 413,-1188 481.3032,-1119.6281 471.506,-1080.8598 535,-1008 545.4465,-996.0125 558.4191,-984.0436 569.6265,-974.4314"/>
<polygon fill="#000000" stroke="#000000" points="572.0133,-976.9974 577.4139,-967.8823 567.5078,-971.64 572.0133,-976.9974"/>
</g>
<!-- O -->
<g id="node5" class="node">
<title>O</title>
<ellipse fill="none" stroke="#000000" cx="100" cy="-1098" rx="27" ry="18"/>
<text text-anchor="middle" x="100" y="-1094.3" font-family="Times,serif" font-size="14.00" fill="#000000">O</text>
</g>
<!-- A&#45;&gt;O -->
<g id="edge4" class="edge">
<title>A&#45;&gt;O</title>
<path fill="none" stroke="#000000" d="M350.7833,-1452.7191C295.0825,-1439.8087 170,-1401.118 170,-1314 170,-1314 170,-1314 170,-1242 170,-1195.8478 140.5559,-1148.9898 119.8603,-1121.7546"/>
<polygon fill="#000000" stroke="#000000" points="122.4174,-1119.3431 113.4967,-1113.6272 116.9059,-1123.6586 122.4174,-1119.3431"/>
</g>
<!-- E -->
<g id="node12" class="node">
<title>E</title>
<ellipse fill="none" stroke="#000000" cx="680" cy="-1314" rx="27" ry="18"/>
<text text-anchor="middle" x="680" y="-1310.3" font-family="Times,serif" font-size="14.00" fill="#000000">E</text>
</g>
<!-- N&#45;&gt;E -->
<g id="edge41" class="edge">
<title>N&#45;&gt;E</title>
<path fill="none" stroke="#000000" d="M467.9152,-1378.4308C510.5213,-1365.4872 597.4418,-1339.081 645.7305,-1324.411"/>
<polygon fill="#000000" stroke="#000000" points="646.8678,-1327.7235 655.4186,-1321.4678 644.833,-1321.0258 646.8678,-1327.7235"/>
</g>
<!-- I -->
<g id="node19" class="node">
<title>I</title>
<ellipse fill="none" stroke="#000000" cx="256" cy="-378" rx="27" ry="18"/>
<text text-anchor="middle" x="256" y="-374.3" font-family="Times,serif" font-size="14.00" fill="#000000">I</text>
</g>
<!-- N&#45;&gt;I -->
<g id="edge42" class="edge">
<title>N&#45;&gt;I</title>
<path fill="none" stroke="#000000" d="M421.119,-1375.4104C402.9697,-1365.864 377.271,-1350.5052 359,-1332 277.857,-1249.8168 246,-1213.4914 246,-1098 246,-1098 246,-1098 246,-954 246,-753.8218 204.4062,-702.899 227,-504 230.9191,-469.4993 240.6903,-430.688 247.8105,-405.3722"/>
<polygon fill="#000000" stroke="#000000" points="251.1852,-406.301 250.5803,-395.7234 244.4569,-404.3695 251.1852,-406.301"/>
</g>
<!-- S -->
<g id="node24" class="node">
<title>S</title>
<ellipse fill="none" stroke="#000000" cx="304" cy="-450" rx="27" ry="18"/>
<text text-anchor="middle" x="304" y="-446.3" font-family="Times,serif" font-size="14.00" fill="#000000">S</text>
</g>
<!-- N&#45;&gt;S -->
<g id="edge43" class="edge">
<title>N&#45;&gt;S</title>
<path fill="none" stroke="#000000" d="M427.4649,-1371.0895C387.4564,-1331.0023 284,-1215.9401 284,-1098 284,-1098 284,-1098 284,-882 284,-825.6046 272.3392,-812.2965 269,-756 266.1579,-708.0842 262.5171,-695.5602 269,-648 275.7283,-598.639 290.9047,-589.1553 299,-540 302.3853,-519.444 303.6019,-495.9293 303.9898,-478.0917"/>
<polygon fill="#000000" stroke="#000000" points="307.4899,-478.1033 304.1345,-468.0538 300.4906,-478.0023 307.4899,-478.1033"/>
</g>
<!-- H -->
<g id="node14" class="node">
<title>H</title>
<ellipse fill="none" stroke="#000000" cx="756" cy="-882" rx="27" ry="18"/>
<text text-anchor="middle" x="756" y="-878.3" font-family="Times,serif" font-size="14.00" fill="#000000">H</text>
</g>
<!-- K&#45;&gt;H -->
<g id="edge32" class="edge">
<title>K&#45;&gt;H</title>
<path fill="none" stroke="#000000" d="M617.7259,-943.8369C645.5337,-931.4011 692.7814,-910.2717 724.1898,-896.2257"/>
<polygon fill="#000000" stroke="#000000" points="725.6898,-899.389 733.3897,-892.1114 722.8321,-892.9988 725.6898,-899.389"/>
</g>
<!-- K&#45;&gt;I -->
<g id="edge33" class="edge">
<title>K&#45;&gt;I</title>
<path fill="none" stroke="#000000" d="M604.5112,-936.8571C618.2447,-910.4526 642,-857.8622 642,-810 642,-810 642,-810 642,-594 642,-435.0465 389.6472,-391.9258 293.0246,-381.2412"/>
<polygon fill="#000000" stroke="#000000" points="293.147,-377.7349 282.8363,-380.172 292.4163,-384.6967 293.147,-377.7349"/>
</g>
<!-- K&#45;&gt;S -->
<g id="edge34" class="edge">
<title>K&#45;&gt;S</title>
<path fill="none" stroke="#000000" d="M585.8936,-936.8089C572.7444,-910.3414 550,-857.6699 550,-810 550,-810 550,-810 550,-738 550,-633.36 593.0278,-582.6428 524,-504 520.9191,-500.4899 401.2163,-472.4424 339.7066,-458.2154"/>
<polygon fill="#000000" stroke="#000000" points="340.1807,-454.7328 329.6495,-455.8924 338.6053,-461.5532 340.1807,-454.7328"/>
</g>
<!-- B -->
<g id="node6" class="node">
<title>B</title>
<ellipse fill="none" stroke="#000000" cx="571" cy="-1026" rx="27" ry="18"/>
<text text-anchor="middle" x="571" y="-1022.3" font-family="Times,serif" font-size="14.00" fill="#000000">B</text>
</g>
<!-- O&#45;&gt;B -->
<g id="edge44" class="edge">
<title>O&#45;&gt;B</title>
<path fill="none" stroke="#000000" d="M126.3322,-1093.9747C205.7988,-1081.8269 443.345,-1045.5141 534.6727,-1031.5532"/>
<polygon fill="#000000" stroke="#000000" points="535.2067,-1035.0123 544.563,-1030.0413 534.1489,-1028.0927 535.2067,-1035.0123"/>
</g>
<!-- J -->
<g id="node17" class="node">
<title>J</title>
<ellipse fill="none" stroke="#000000" cx="259" cy="-306" rx="27" ry="18"/>
<text text-anchor="middle" x="259" y="-302.3" font-family="Times,serif" font-size="14.00" fill="#000000">J</text>
</g>
<!-- O&#45;&gt;J -->
<g id="edge45" class="edge">
<title>O&#45;&gt;J</title>
<path fill="none" stroke="#000000" d="M91.0959,-1080.7856C78.239,-1054.2875 56,-1001.5766 56,-954 56,-954 56,-954 56,-522 56,-423.0415 170.5386,-350.8752 227.5439,-321.0864"/>
<polygon fill="#000000" stroke="#000000" points="229.189,-324.1763 236.4998,-316.508 226.0027,-317.9435 229.189,-324.1763"/>
</g>
<!-- M -->
<g id="node18" class="node">
<title>M</title>
<ellipse fill="none" stroke="#000000" cx="482" cy="-18" rx="27" ry="18"/>
<text text-anchor="middle" x="482" y="-14.3" font-family="Times,serif" font-size="14.00" fill="#000000">M</text>
</g>
<!-- O&#45;&gt;M -->
<g id="edge46" class="edge">
<title>O&#45;&gt;M</title>
<path fill="none" stroke="#000000" d="M80.1171,-1085.7885C50.6557,-1062.8425 0,-1010.4855 0,-954 0,-954 0,-954 0,-162 0,-70.0078 331.5669,-31.1144 444.7742,-20.8912"/>
<polygon fill="#000000" stroke="#000000" points="445.3742,-24.352 455.0297,-19.9905 444.7618,-17.3789 445.3742,-24.352"/>
</g>
<!-- B&#45;&gt;N -->
<g id="edge5" class="edge">
<title>B&#45;&gt;N</title>
<path fill="none" stroke="#000000" d="M574.5224,-1044.1045C579.5018,-1071.3176 588,-1124.4358 588,-1170 588,-1242 588,-1242 588,-1242 588,-1305.1639 517.8707,-1350.1188 475.1549,-1371.6424"/>
<polygon fill="#000000" stroke="#000000" points="473.4279,-1368.5906 465.9757,-1376.1215 476.4977,-1374.8815 473.4279,-1368.5906"/>
</g>
<!-- B&#45;&gt;K -->
<g id="edge6" class="edge">
<title>B&#45;&gt;K</title>
<path fill="none" stroke="#000000" d="M576.9326,-1008.2022C579.6355,-1000.0936 582.8957,-990.3129 585.8984,-981.3049"/>
<polygon fill="#000000" stroke="#000000" points="589.2937,-982.1867 589.1357,-971.593 582.6529,-979.973 589.2937,-982.1867"/>
</g>
<!-- X -->
<g id="node7" class="node">
<title>X</title>
<ellipse fill="none" stroke="#000000" cx="396" cy="-1242" rx="27" ry="18"/>
<text text-anchor="middle" x="396" y="-1238.3" font-family="Times,serif" font-size="14.00" fill="#000000">X</text>
</g>
<!-- B&#45;&gt;X -->
<g id="edge7" class="edge">
<title>B&#45;&gt;X</title>
<path fill="none" stroke="#000000" d="M564.3025,-1043.5621C556.6385,-1062.4535 542.9328,-1092.8898 526,-1116 495.2283,-1157.9979 449.8491,-1198.4003 421.6503,-1221.6879"/>
<polygon fill="#000000" stroke="#000000" points="419.3664,-1219.0342 413.8324,-1228.0689 423.7926,-1224.4571 419.3664,-1219.0342"/>
</g>
<!-- X&#45;&gt;A -->
<g id="edge71" class="edge">
<title>X&#45;&gt;A</title>
<path fill="none" stroke="#000000" d="M394.4039,-1260.1451C391.0921,-1297.7945 383.4529,-1384.6409 379.4884,-1429.7103"/>
<polygon fill="#000000" stroke="#000000" points="375.977,-1429.6872 378.5872,-1439.9555 382.9501,-1430.3007 375.977,-1429.6872"/>
</g>
<!-- Q -->
<g id="node13" class="node">
<title>Q</title>
<ellipse fill="none" stroke="#000000" cx="848" cy="-162" rx="27" ry="18"/>
<text text-anchor="middle" x="848" y="-158.3" font-family="Times,serif" font-size="14.00" fill="#000000">Q</text>
</g>
<!-- X&#45;&gt;Q -->
<g id="edge72" class="edge">
<title>X&#45;&gt;Q</title>
<path fill="none" stroke="#000000" d="M422.8424,-1239.7471C523.1141,-1230.6058 870,-1192.1758 870,-1098 870,-1098 870,-1098 870,-306 870,-265.2316 861.2765,-218.7078 854.8159,-189.8425"/>
<polygon fill="#000000" stroke="#000000" points="858.2155,-189.0083 852.5584,-180.0502 851.3944,-190.5809 858.2155,-189.0083"/>
</g>
<!-- V -->
<g id="node25" class="node">
<title>V</title>
<ellipse fill="none" stroke="#000000" cx="377" cy="-1170" rx="27" ry="18"/>
<text text-anchor="middle" x="377" y="-1166.3" font-family="Times,serif" font-size="14.00" fill="#000000">V</text>
</g>
<!-- X&#45;&gt;V -->
<g id="edge73" class="edge">
<title>X&#45;&gt;V</title>
<path fill="none" stroke="#000000" d="M391.3034,-1224.2022C389.2024,-1216.2406 386.676,-1206.6671 384.335,-1197.7957"/>
<polygon fill="#000000" stroke="#000000" points="387.6442,-1196.6185 381.7084,-1187.8425 380.8759,-1198.4046 387.6442,-1196.6185"/>
</g>
<!-- C -->
<g id="node8" class="node">
<title>C</title>
<ellipse fill="none" stroke="#000000" cx="482" cy="-162" rx="27" ry="18"/>
<text text-anchor="middle" x="482" y="-158.3" font-family="Times,serif" font-size="14.00" fill="#000000">C</text>
</g>
<!-- C&#45;&gt;N -->
<g id="edge8" class="edge">
<title>C&#45;&gt;N</title>
<path fill="none" stroke="#000000" d="M488.0088,-179.9514C496.5031,-206.9694 511,-259.8415 511,-306 511,-378 511,-378 511,-378 511,-538.8428 474,-577.1572 474,-738 474,-1026 474,-1026 474,-1026 474,-1150.2741 455.4359,-1297.7928 447.0393,-1358.1598"/>
<polygon fill="#000000" stroke="#000000" points="443.5729,-1357.6763 445.643,-1368.0669 450.5044,-1358.6532 443.5729,-1357.6763"/>
</g>
<!-- Y -->
<g id="node9" class="node">
<title>Y</title>
<ellipse fill="none" stroke="#000000" cx="815" cy="-810" rx="27" ry="18"/>
<text text-anchor="middle" x="815" y="-806.3" font-family="Times,serif" font-size="14.00" fill="#000000">Y</text>
</g>
<!-- C&#45;&gt;Y -->
<g id="edge9" class="edge">
<title>C&#45;&gt;Y</title>
<path fill="none" stroke="#000000" d="M505.9641,-170.5519C579.0227,-198.3242 794,-293.3538 794,-450 794,-666 794,-666 794,-666 794,-706.7271 802.327,-753.2616 808.4939,-782.1405"/>
<polygon fill="#000000" stroke="#000000" points="805.0823,-782.9232 810.6488,-791.9379 811.9189,-781.4194 805.0823,-782.9232"/>
</g>
<!-- G -->
<g id="node10" class="node">
<title>G</title>
<ellipse fill="none" stroke="#000000" cx="482" cy="-90" rx="27" ry="18"/>
<text text-anchor="middle" x="482" y="-86.3" font-family="Times,serif" font-size="14.00" fill="#000000">G</text>
</g>
<!-- C&#45;&gt;G -->
<g id="edge10" class="edge">
<title>C&#45;&gt;G</title>
<path fill="none" stroke="#000000" d="M482,-143.8314C482,-136.131 482,-126.9743 482,-118.4166"/>
<polygon fill="#000000" stroke="#000000" points="485.5001,-118.4132 482,-108.4133 478.5001,-118.4133 485.5001,-118.4132"/>
</g>
<!-- Y&#45;&gt;A -->
<g id="edge74" class="edge">
<title>Y&#45;&gt;A</title>
<path fill="none" stroke="#000000" d="M841.2167,-815.2809C896.9175,-828.1913 1022,-866.882 1022,-954 1022,-1314 1022,-1314 1022,-1314 1022,-1374.7915 974.784,-1379.8392 919,-1404 827.8716,-1443.469 521.4309,-1454.5228 414.3292,-1457.2198"/>
<polygon fill="#000000" stroke="#000000" points="413.9291,-1453.7284 404.0166,-1457.4689 414.0982,-1460.7263 413.9291,-1453.7284"/>
</g>
<!-- Y&#45;&gt;N -->
<g id="edge75" class="edge">
<title>Y&#45;&gt;N</title>
<path fill="none" stroke="#000000" d="M818.5224,-828.1045C823.5018,-855.3176 832,-908.4358 832,-954 832,-1242 832,-1242 832,-1242 832,-1307.2532 775.379,-1304.9424 716,-1332 637.0694,-1367.9668 534.5809,-1380.0449 480.3956,-1384.0514"/>
<polygon fill="#000000" stroke="#000000" points="479.9607,-1380.5729 470.2239,-1384.7497 480.4402,-1387.5565 479.9607,-1380.5729"/>
</g>
<!-- F -->
<g id="node15" class="node">
<title>F</title>
<ellipse fill="none" stroke="#000000" cx="305" cy="-738" rx="27" ry="18"/>
<text text-anchor="middle" x="305" y="-734.3" font-family="Times,serif" font-size="14.00" fill="#000000">F</text>
</g>
<!-- Y&#45;&gt;F -->
<g id="edge76" class="edge">
<title>Y&#45;&gt;F</title>
<path fill="none" stroke="#000000" d="M788.2982,-806.2303C703.2665,-794.2259 438.6992,-756.8752 341.3913,-743.1376"/>
<polygon fill="#000000" stroke="#000000" points="341.8285,-739.6647 331.4374,-741.7323 340.8499,-746.596 341.8285,-739.6647"/>
</g>
<!-- G&#45;&gt;H -->
<g id="edge20" class="edge">
<title>G&#45;&gt;H</title>
<path fill="none" stroke="#000000" d="M508.9068,-92.87C562.0354,-99.1015 677.5635,-115.637 704,-144 798.0578,-244.9121 756,-312.0503 756,-450 756,-738 756,-738 756,-738 756,-778.124 756,-824.5369 756,-853.5823"/>
<polygon fill="#000000" stroke="#000000" points="752.5001,-853.8146 756,-863.8146 759.5001,-853.8147 752.5001,-853.8146"/>
</g>
<!-- G&#45;&gt;J -->
<g id="edge21" class="edge">
<title>G&#45;&gt;J</title>
<path fill="none" stroke="#000000" d="M462.0169,-102.3627C429.5041,-123.1131 364.2439,-167.4698 319,-216 300.7322,-235.5947 284.1922,-261.2987 273.127,-280.2184"/>
<polygon fill="#000000" stroke="#000000" points="270.0848,-278.4878 268.1512,-288.9047 276.1588,-281.9672 270.0848,-278.4878"/>
</g>
<!-- G&#45;&gt;M -->
<g id="edge22" class="edge">
<title>G&#45;&gt;M</title>
<path fill="none" stroke="#000000" d="M476.0843,-72.2022C475.2798,-64.1807 475.0571,-54.5231 475.4162,-45.5957"/>
<polygon fill="#000000" stroke="#000000" points="478.9097,-45.8099 476.105,-35.593 471.9262,-45.3289 478.9097,-45.8099"/>
</g>
<!-- D -->
<g id="node11" class="node">
<title>D</title>
<ellipse fill="none" stroke="#000000" cx="927" cy="-90" rx="27" ry="18"/>
<text text-anchor="middle" x="927" y="-86.3" font-family="Times,serif" font-size="14.00" fill="#000000">D</text>
</g>
<!-- D&#45;&gt;K -->
<g id="edge11" class="edge">
<title>D&#45;&gt;K</title>
<path fill="none" stroke="#000000" d="M930.9368,-108.0844C936.502,-135.2719 946,-188.3578 946,-234 946,-810 946,-810 946,-810 946,-877.5552 720.6395,-929.3045 631.0731,-947.2038"/>
<polygon fill="#000000" stroke="#000000" points="630.2301,-943.8025 621.0953,-949.1696 631.5833,-950.6705 630.2301,-943.8025"/>
</g>
<!-- D&#45;&gt;Y -->
<g id="edge12" class="edge">
<title>D&#45;&gt;Y</title>
<path fill="none" stroke="#000000" d="M923.0632,-108.0844C917.498,-135.2719 908,-188.3578 908,-234 908,-666 908,-666 908,-666 908,-716.3813 867.3313,-763.1007 839.7811,-788.9697"/>
<polygon fill="#000000" stroke="#000000" points="837.0938,-786.6831 832.0576,-796.0044 841.8075,-791.8582 837.0938,-786.6831"/>
</g>
<!-- D&#45;&gt;E -->
<g id="edge13" class="edge">
<title>D&#45;&gt;E</title>
<path fill="none" stroke="#000000" d="M948.9622,-100.8853C986.738,-121.3382 1060,-169.3396 1060,-234 1060,-810 1060,-810 1060,-810 1060,-947.663 946,-960.337 946,-1098 946,-1170 946,-1170 946,-1170 946,-1272.8563 790.2869,-1302.6164 717.1349,-1310.9222"/>
<polygon fill="#000000" stroke="#000000" points="716.5454,-1307.465 706.9693,-1311.9982 717.2822,-1314.4261 716.5454,-1307.465"/>
</g>
<!-- E&#45;&gt;X -->
<g id="edge14" class="edge">
<title>E&#45;&gt;X</title>
<path fill="none" stroke="#000000" d="M654.547,-1307.5471C603.6859,-1294.6528 489.4044,-1265.68 431.3257,-1250.9558"/>
<polygon fill="#000000" stroke="#000000" points="432.0515,-1247.5292 421.4981,-1248.4643 430.3313,-1254.3145 432.0515,-1247.5292"/>
</g>
<!-- E&#45;&gt;Q -->
<g id="edge15" class="edge">
<title>E&#45;&gt;Q</title>
<path fill="none" stroke="#000000" d="M706.6007,-1310.0262C766.7446,-1299.3806 908,-1264.3364 908,-1170 908,-1170 908,-1170 908,-1098 908,-965.6182 984,-942.3818 984,-810 984,-810 984,-810 984,-378 984,-295.6711 912.3723,-219.0765 873.0807,-183.2538"/>
<polygon fill="#000000" stroke="#000000" points="875.0155,-180.2892 865.2245,-176.241 870.354,-185.5114 875.0155,-180.2892"/>
</g>
<!-- E&#45;&gt;H -->
<g id="edge16" class="edge">
<title>E&#45;&gt;H</title>
<path fill="none" stroke="#000000" d="M694.6536,-1298.5784C716.7383,-1273.6483 756,-1222.0136 756,-1170 756,-1170 756,-1170 756,-1026 756,-985.876 756,-939.4631 756,-910.4177"/>
<polygon fill="#000000" stroke="#000000" points="759.5001,-910.1853 756,-900.1854 752.5001,-910.1854 759.5001,-910.1853"/>
</g>
<!-- Q&#45;&gt;Y -->
<g id="edge50" class="edge">
<title>Q&#45;&gt;Y</title>
<path fill="none" stroke="#000000" d="M844.6848,-180.1137C839.9983,-207.3385 832,-260.4715 832,-306 832,-666 832,-666 832,-666 832,-706.4027 825.3181,-752.7448 820.3326,-781.6987"/>
<polygon fill="#000000" stroke="#000000" points="816.8243,-781.4377 818.5224,-791.8955 823.7165,-782.6613 816.8243,-781.4377"/>
</g>
<!-- Q&#45;&gt;G -->
<g id="edge51" class="edge">
<title>Q&#45;&gt;G</title>
<path fill="none" stroke="#000000" d="M825.5902,-151.4707C819.0617,-148.7195 811.8424,-145.9753 805,-144 703.7434,-114.7685 579.7705,-99.5567 519.0703,-93.388"/>
<polygon fill="#000000" stroke="#000000" points="519.1362,-89.8774 508.8396,-92.3736 518.4455,-96.8433 519.1362,-89.8774"/>
</g>
<!-- Q&#45;&gt;D -->
<g id="edge52" class="edge">
<title>Q&#45;&gt;D</title>
<path fill="none" stroke="#000000" d="M863.9868,-147.4297C875.3372,-137.0851 890.7602,-123.0286 903.5067,-111.4116"/>
<polygon fill="#000000" stroke="#000000" points="906.0036,-113.8715 911.0369,-104.5486 901.2884,-108.6978 906.0036,-113.8715"/>
</g>
<!-- H&#45;&gt;A -->
<g id="edge23" class="edge">
<title>H&#45;&gt;A</title>
<path fill="none" stroke="#000000" d="M779.5413,-890.9934C837.7949,-914.9532 984,-986.2216 984,-1098 984,-1314 984,-1314 984,-1314 984,-1431.7097 546.3952,-1453.3444 414.3053,-1457.1935"/>
<polygon fill="#000000" stroke="#000000" points="414.1611,-1453.6961 404.2607,-1457.4687 414.3529,-1460.6935 414.1611,-1453.6961"/>
</g>
<!-- H&#45;&gt;B -->
<g id="edge24" class="edge">
<title>H&#45;&gt;B</title>
<path fill="none" stroke="#000000" d="M738.3151,-895.7655C705.4814,-921.3226 634.9793,-976.1999 596.813,-1005.9077"/>
<polygon fill="#000000" stroke="#000000" points="594.48,-1003.2883 588.7386,-1012.1927 598.7797,-1008.8122 594.48,-1003.2883"/>
</g>
<!-- H&#45;&gt;Y -->
<g id="edge25" class="edge">
<title>H&#45;&gt;Y</title>
<path fill="none" stroke="#000000" d="M769.094,-866.0209C776.8089,-856.6061 786.7189,-844.5126 795.3555,-833.973"/>
<polygon fill="#000000" stroke="#000000" points="798.3115,-835.8877 801.9426,-825.9345 792.8971,-831.4509 798.3115,-835.8877"/>
</g>
<!-- F&#45;&gt;Z -->
<g id="edge17" class="edge">
<title>F&#45;&gt;Z</title>
<path fill="none" stroke="#000000" d="M294.6962,-754.6872C257.4525,-816.6479 132,-1040.3254 132,-1242 132,-1386 132,-1386 132,-1386 132,-1481.4996 272.0661,-1514.9079 340.3883,-1525.5233"/>
<polygon fill="#000000" stroke="#000000" points="339.9114,-1528.9907 350.3143,-1526.9832 340.9301,-1522.0652 339.9114,-1528.9907"/>
</g>
<!-- F&#45;&gt;X -->
<g id="edge18" class="edge">
<title>F&#45;&gt;X</title>
<path fill="none" stroke="#000000" d="M308.5224,-756.1045C313.5018,-783.3176 322,-836.4358 322,-882 322,-1098 322,-1098 322,-1098 322,-1138.8816 321.3532,-1152.1488 341,-1188 348.1232,-1200.9983 359.3789,-1212.8579 369.8574,-1222.1306"/>
<polygon fill="#000000" stroke="#000000" points="367.7371,-1224.921 377.6376,-1228.6933 372.2505,-1219.5703 367.7371,-1224.921"/>
</g>
<!-- R -->
<g id="node16" class="node">
<title>R</title>
<ellipse fill="none" stroke="#000000" cx="305" cy="-666" rx="27" ry="18"/>
<text text-anchor="middle" x="305" y="-662.3" font-family="Times,serif" font-size="14.00" fill="#000000">R</text>
</g>
<!-- F&#45;&gt;R -->
<g id="edge19" class="edge">
<title>F&#45;&gt;R</title>
<path fill="none" stroke="#000000" d="M305,-719.8314C305,-712.131 305,-702.9743 305,-694.4166"/>
<polygon fill="#000000" stroke="#000000" points="308.5001,-694.4132 305,-684.4133 301.5001,-694.4133 308.5001,-694.4132"/>
</g>
<!-- R&#45;&gt;O -->
<g id="edge53" class="edge">
<title>R&#45;&gt;O</title>
<path fill="none" stroke="#000000" d="M284.8161,-678.0376C239.1806,-706.9588 132,-785.1891 132,-882 132,-954 132,-954 132,-954 132,-995.2839 119.3113,-1041.674 109.914,-1070.3696"/>
<polygon fill="#000000" stroke="#000000" points="106.5121,-1069.5047 106.6304,-1080.0988 113.1445,-1071.7432 106.5121,-1069.5047"/>
</g>
<!-- W -->
<g id="node21" class="node">
<title>W</title>
<ellipse fill="none" stroke="#000000" cx="136" cy="-594" rx="27" ry="18"/>
<text text-anchor="middle" x="136" y="-590.3" font-family="Times,serif" font-size="14.00" fill="#000000">W</text>
</g>
<!-- R&#45;&gt;W -->
<g id="edge54" class="edge">
<title>R&#45;&gt;W</title>
<path fill="none" stroke="#000000" d="M282.2079,-656.2898C252.851,-643.7827 201.6449,-621.967 168.2887,-607.7561"/>
<polygon fill="#000000" stroke="#000000" points="169.5424,-604.4859 158.9707,-603.7863 166.7988,-610.9258 169.5424,-604.4859"/>
</g>
<!-- U -->
<g id="node26" class="node">
<title>U</title>
<ellipse fill="none" stroke="#000000" cx="668" cy="-162" rx="27" ry="18"/>
<text text-anchor="middle" x="668" y="-158.3" font-family="Times,serif" font-size="14.00" fill="#000000">U</text>
</g>
<!-- R&#45;&gt;U -->
<g id="edge55" class="edge">
<title>R&#45;&gt;U</title>
<path fill="none" stroke="#000000" d="M321.3388,-651.3461C359.9282,-621.2537 456.3554,-548.5162 516,-468 584.6771,-375.2905 632.258,-244.3343 654.6888,-188.6855"/>
<polygon fill="#000000" stroke="#000000" points="658.0241,-189.7772 658.5839,-179.1972 651.5485,-187.1189 658.0241,-189.7772"/>
</g>
<!-- J&#45;&gt;W -->
<g id="edge29" class="edge">
<title>J&#45;&gt;W</title>
<path fill="none" stroke="#000000" d="M246.9724,-322.4869C239.222,-333.1516 228.9563,-347.3541 220,-360 197.4828,-391.7931 187.4483,-397.1663 170,-432 154.8933,-462.159 153.2361,-471.0543 146,-504 141.5103,-524.4415 138.9858,-547.9609 137.5968,-565.8292"/>
<polygon fill="#000000" stroke="#000000" points="134.0997,-565.6667 136.8876,-575.8882 141.0824,-566.1591 134.0997,-565.6667"/>
</g>
<!-- P -->
<g id="node22" class="node">
<title>P</title>
<ellipse fill="none" stroke="#000000" cx="355" cy="-234" rx="27" ry="18"/>
<text text-anchor="middle" x="355" y="-230.3" font-family="Times,serif" font-size="14.00" fill="#000000">P</text>
</g>
<!-- J&#45;&gt;P -->
<g id="edge30" class="edge">
<title>J&#45;&gt;P</title>
<path fill="none" stroke="#000000" d="M277.0569,-292.4574C291.6725,-281.4956 312.455,-265.9088 328.8848,-253.5864"/>
<polygon fill="#000000" stroke="#000000" points="331.1241,-256.282 337.0241,-247.4819 326.9241,-250.682 331.1241,-256.282"/>
</g>
<!-- T -->
<g id="node23" class="node">
<title>T</title>
<ellipse fill="none" stroke="#000000" cx="566" cy="-234" rx="27" ry="18"/>
<text text-anchor="middle" x="566" y="-230.3" font-family="Times,serif" font-size="14.00" fill="#000000">T</text>
</g>
<!-- J&#45;&gt;T -->
<g id="edge31" class="edge">
<title>J&#45;&gt;T</title>
<path fill="none" stroke="#000000" d="M284.6466,-299.9852C339.3873,-287.147 467.7655,-257.0387 530.3874,-242.3521"/>
<polygon fill="#000000" stroke="#000000" points="531.2738,-245.7393 540.2105,-240.0484 529.6755,-238.9242 531.2738,-245.7393"/>
</g>
<!-- M&#45;&gt;O -->
<g id="edge38" class="edge">
<title>M&#45;&gt;O</title>
<path fill="none" stroke="#000000" d="M455.2485,-20.5902C356.2961,-30.3344 18,-69.079 18,-162 18,-954 18,-954 18,-954 18,-1002.5099 55.3607,-1047.9748 79.837,-1074.3808"/>
<polygon fill="#000000" stroke="#000000" points="77.5592,-1077.0672 86.9638,-1081.9462 82.6544,-1072.2673 77.5592,-1077.0672"/>
</g>
<!-- M&#45;&gt;G -->
<g id="edge39" class="edge">
<title>M&#45;&gt;G</title>
<path fill="none" stroke="#000000" d="M487.895,-35.593C488.7094,-43.5865 488.942,-53.2363 488.5928,-62.1759"/>
<polygon fill="#000000" stroke="#000000" points="485.0976,-61.9891 487.9157,-72.2022 492.0817,-62.4608 485.0976,-61.9891"/>
</g>
<!-- M&#45;&gt;T -->
<g id="edge40" class="edge">
<title>M&#45;&gt;T</title>
<path fill="none" stroke="#000000" d="M494.7163,-34.2547C502.3174,-44.5952 511.6916,-58.5313 518,-72 538.9944,-116.824 553.1665,-172.9401 560.3888,-205.9881"/>
<polygon fill="#000000" stroke="#000000" points="556.9854,-206.8109 562.4893,-215.8639 563.8322,-205.3545 556.9854,-206.8109"/>
</g>
<!-- I&#45;&gt;J -->
<g id="edge26" class="edge">
<title>I&#45;&gt;J</title>
<path fill="none" stroke="#000000" d="M256.757,-359.8314C257.0779,-352.131 257.4594,-342.9743 257.816,-334.4166"/>
<polygon fill="#000000" stroke="#000000" points="261.3133,-334.5503 258.2328,-324.4133 254.3194,-334.2589 261.3133,-334.5503"/>
</g>
<!-- L -->
<g id="node20" class="node">
<title>L</title>
<ellipse fill="none" stroke="#000000" cx="263" cy="-522" rx="27" ry="18"/>
<text text-anchor="middle" x="263" y="-518.3" font-family="Times,serif" font-size="14.00" fill="#000000">L</text>
</g>
<!-- I&#45;&gt;L -->
<g id="edge27" class="edge">
<title>I&#45;&gt;L</title>
<path fill="none" stroke="#000000" d="M256.8794,-396.0896C258.0695,-420.5727 260.2057,-464.5174 261.6132,-493.4713"/>
<polygon fill="#000000" stroke="#000000" points="258.1319,-493.9441 262.1134,-503.7623 265.1237,-493.6041 258.1319,-493.9441"/>
</g>
<!-- I&#45;&gt;W -->
<g id="edge28" class="edge">
<title>I&#45;&gt;W</title>
<path fill="none" stroke="#000000" d="M236.5765,-390.8379C223.004,-400.6846 205.3482,-415.3778 194,-432 165.2741,-474.076 149.0812,-531.987 141.4713,-565.9616"/>
<polygon fill="#000000" stroke="#000000" points="137.9717,-565.5893 139.2972,-576.1008 144.8161,-567.057 137.9717,-565.5893"/>
</g>
<!-- L&#45;&gt;R -->
<g id="edge35" class="edge">
<title>L&#45;&gt;R</title>
<path fill="none" stroke="#000000" d="M268.1684,-539.7204C275.3398,-564.308 288.3815,-609.0224 296.8655,-638.1102"/>
<polygon fill="#000000" stroke="#000000" points="293.6055,-639.4335 299.7656,-648.0535 300.3255,-637.4734 293.6055,-639.4335"/>
</g>
<!-- L&#45;&gt;T -->
<g id="edge36" class="edge">
<title>L&#45;&gt;T</title>
<path fill="none" stroke="#000000" d="M282.7416,-509.6595C298.7647,-499.2953 321.63,-483.7001 340,-468 422.2835,-397.6757 508.0276,-301.5013 545.9358,-257.5936"/>
<polygon fill="#000000" stroke="#000000" points="548.791,-259.6413 552.6555,-249.7764 543.4826,-255.0783 548.791,-259.6413"/>
</g>
<!-- L&#45;&gt;S -->
<g id="edge37" class="edge">
<title>L&#45;&gt;S</title>
<path fill="none" stroke="#000000" d="M267.2191,-504.2022C271.4672,-495.1475 277.6439,-484.0078 283.8106,-474.1872"/>
<polygon fill="#000000" stroke="#000000" points="286.8605,-475.9189 289.4157,-465.6368 281.0061,-472.0813 286.8605,-475.9189"/>
</g>
<!-- W&#45;&gt;N -->
<g id="edge68" class="edge">
<title>W&#45;&gt;N</title>
<path fill="none" stroke="#000000" d="M138.1331,-612.0703C141.7989,-642.0946 149.8849,-704.0929 160,-756 177.3194,-844.8772 208,-863.4511 208,-954 208,-1098 208,-1098 208,-1098 208,-1211.0987 215.2004,-1267.3507 308,-1332 338.7141,-1353.3972 379.143,-1368.1244 407.7263,-1376.7294"/>
<polygon fill="#000000" stroke="#000000" points="407.1015,-1380.1927 417.6811,-1379.6237 409.0558,-1373.471 407.1015,-1380.1927"/>
</g>
<!-- W&#45;&gt;O -->
<g id="edge69" class="edge">
<title>W&#45;&gt;O</title>
<path fill="none" stroke="#000000" d="M127.5007,-611.2598C115.2281,-637.8171 94,-690.6042 94,-738 94,-954 94,-954 94,-954 94,-994.1588 96.3583,-1040.5628 98.1179,-1069.5969"/>
<polygon fill="#000000" stroke="#000000" points="94.6401,-1070.0624 98.7568,-1079.8247 101.6264,-1069.6259 94.6401,-1070.0624"/>
</g>
<!-- W&#45;&gt;L -->
<g id="edge70" class="edge">
<title>W&#45;&gt;L</title>
<path fill="none" stroke="#000000" d="M156.6874,-582.2717C177.5363,-570.4519 209.9107,-552.0979 233.4583,-538.7481"/>
<polygon fill="#000000" stroke="#000000" points="235.3484,-541.6999 242.3215,-533.7233 231.896,-535.6104 235.3484,-541.6999"/>
</g>
<!-- P&#45;&gt;C -->
<g id="edge47" class="edge">
<title>P&#45;&gt;C</title>
<path fill="none" stroke="#000000" d="M375.6874,-222.2717C396.5363,-210.4519 428.9107,-192.0979 452.4583,-178.7481"/>
<polygon fill="#000000" stroke="#000000" points="454.3484,-181.6999 461.3215,-173.7233 450.896,-175.6104 454.3484,-181.6999"/>
</g>
<!-- P&#45;&gt;W -->
<g id="edge48" class="edge">
<title>P&#45;&gt;W</title>
<path fill="none" stroke="#000000" d="M328.9918,-238.9375C300.0272,-245.6153 253.3055,-260.0513 223,-288 146.9199,-358.1636 145.9227,-400.9823 136,-504 134.0182,-524.5756 134.0846,-547.92 134.6116,-565.6769"/>
<polygon fill="#000000" stroke="#000000" points="131.1142,-565.8125 134.9741,-575.6792 138.1096,-565.559 131.1142,-565.8125"/>
</g>
<!-- P&#45;&gt;V -->
<g id="edge49" class="edge">
<title>P&#45;&gt;V</title>
<path fill="none" stroke="#000000" d="M357.6898,-252.2592C367.1036,-317.8026 398,-547.4352 398,-738 398,-1026 398,-1026 398,-1026 398,-1066.7271 389.673,-1113.2616 383.5061,-1142.1405"/>
<polygon fill="#000000" stroke="#000000" points="380.0811,-1141.4194 381.3512,-1151.9379 386.9177,-1142.9232 380.0811,-1141.4194"/>
</g>
<!-- T&#45;&gt;E -->
<g id="edge59" class="edge">
<title>T&#45;&gt;E</title>
<path fill="none" stroke="#000000" d="M575.5235,-250.996C602.9222,-301.5414 680,-455.9987 680,-594 680,-1170 680,-1170 680,-1170 680,-1210.124 680,-1256.5369 680,-1285.5823"/>
<polygon fill="#000000" stroke="#000000" points="676.5001,-1285.8146 680,-1295.8146 683.5001,-1285.8147 676.5001,-1285.8146"/>
</g>
<!-- T&#45;&gt;Q -->
<g id="edge60" class="edge">
<title>T&#45;&gt;Q</title>
<path fill="none" stroke="#000000" d="M591.523,-227.4835C642.1716,-214.5519 755.4487,-185.6301 812.9998,-170.9362"/>
<polygon fill="#000000" stroke="#000000" points="813.9145,-174.315 822.7379,-168.4499 812.1828,-167.5326 813.9145,-174.315"/>
</g>
<!-- T&#45;&gt;U -->
<g id="edge61" class="edge">
<title>T&#45;&gt;U</title>
<path fill="none" stroke="#000000" d="M584.7084,-220.7941C600.5244,-209.6298 623.379,-193.4971 641.1486,-180.9539"/>
<polygon fill="#000000" stroke="#000000" points="643.2589,-183.7485 649.4102,-175.1222 639.2221,-178.0297 643.2589,-183.7485"/>
</g>
<!-- S&#45;&gt;E -->
<g id="edge56" class="edge">
<title>S&#45;&gt;E</title>
<path fill="none" stroke="#000000" d="M323.1953,-463.0478C374.6875,-499.7672 512,-609.7125 512,-738 512,-810 512,-810 512,-810 512,-884.969 516.3708,-910.3308 559,-972 574.1633,-993.9359 592.662,-985.5159 607,-1008 628.981,-1042.4695 626,-1057.1184 626,-1098 626,-1170 626,-1170 626,-1170 626,-1213.6587 648.0309,-1260.294 663.949,-1288.2915"/>
<polygon fill="#000000" stroke="#000000" points="660.9988,-1290.1799 669.0723,-1297.0406 667.0393,-1286.6426 660.9988,-1290.1799"/>
</g>
<!-- S&#45;&gt;I -->
<g id="edge57" class="edge">
<title>S&#45;&gt;I</title>
<path fill="none" stroke="#000000" d="M292.8672,-433.3008C286.8696,-424.3043 279.3498,-413.0247 272.6686,-403.0029"/>
<polygon fill="#000000" stroke="#000000" points="275.5317,-400.9877 267.0724,-394.6087 269.7073,-404.8706 275.5317,-400.9877"/>
</g>
<!-- S&#45;&gt;L -->
<g id="edge58" class="edge">
<title>S&#45;&gt;L</title>
<path fill="none" stroke="#000000" d="M299.7863,-467.7862C295.4925,-476.9402 289.226,-488.2272 282.9909,-498.1284"/>
<polygon fill="#000000" stroke="#000000" points="279.9037,-496.4529 277.331,-506.7307 285.7514,-500.3005 279.9037,-496.4529"/>
</g>
<!-- V&#45;&gt;O -->
<g id="edge65" class="edge">
<title>V&#45;&gt;O</title>
<path fill="none" stroke="#000000" d="M351.437,-1163.3555C301.7594,-1150.4429 192.1008,-1121.9395 135.4382,-1107.2114"/>
<polygon fill="#000000" stroke="#000000" points="136.0601,-1103.7568 125.5012,-1104.6285 134.2991,-1110.5317 136.0601,-1103.7568"/>
</g>
<!-- V&#45;&gt;C -->
<g id="edge66" class="edge">
<title>V&#45;&gt;C</title>
<path fill="none" stroke="#000000" d="M388.6565,-1153.611C405.8509,-1127.7811 436,-1075.4412 436,-1026 436,-1026 436,-1026 436,-738 436,-633.5414 446.9361,-607.871 458,-504 463.9732,-447.9218 473,-434.3954 473,-378 473,-378 473,-378 473,-306 473,-265.7977 476.5375,-219.4047 479.1768,-190.385"/>
<polygon fill="#000000" stroke="#000000" points="482.6864,-190.4457 480.1352,-180.1626 475.717,-189.7923 482.6864,-190.4457"/>
</g>
<!-- V&#45;&gt;L -->
<g id="edge67" class="edge">
<title>V&#45;&gt;L</title>
<path fill="none" stroke="#000000" d="M373.4776,-1151.8955C368.4982,-1124.6824 360,-1071.5642 360,-1026 360,-1026 360,-1026 360,-738 360,-660.9071 338.7364,-641.4511 298,-576 292.1557,-566.6099 285.5973,-556.4067 279.7511,-547.4236"/>
<polygon fill="#000000" stroke="#000000" points="282.5958,-545.3785 274.1952,-538.9224 276.7362,-549.2081 282.5958,-545.3785"/>
</g>
<!-- U&#45;&gt;Z -->
<g id="edge62" class="edge">
<title>U&#45;&gt;Z</title>
<path fill="none" stroke="#000000" d="M694.2511,-166.3222C787.6105,-183.3314 1098,-254.5761 1098,-450 1098,-1386 1098,-1386 1098,-1386 1098,-1456.4369 562.0015,-1512.4617 414.2934,-1526.5635"/>
<polygon fill="#000000" stroke="#000000" points="413.5737,-1523.1159 403.9482,-1527.543 414.2336,-1530.0847 413.5737,-1523.1159"/>
</g>
<!-- U&#45;&gt;H -->
<g id="edge63" class="edge">
<title>U&#45;&gt;H</title>
<path fill="none" stroke="#000000" d="M672.263,-179.8581C684.3544,-232.1307 718,-389.4901 718,-522 718,-738 718,-738 718,-738 718,-780.0945 733.3687,-826.8878 744.5585,-855.3788"/>
<polygon fill="#000000" stroke="#000000" points="741.3162,-856.6971 748.3101,-864.6554 747.8056,-854.0726 741.3162,-856.6971"/>
</g>
<!-- U&#45;&gt;R -->
<g id="edge64" class="edge">
<title>U&#45;&gt;R</title>
<path fill="none" stroke="#000000" d="M666.5531,-180.2598C655.3925,-229.9154 606.4281,-370.227 534,-468 475.8116,-546.5505 382.6147,-617.6974 334.8805,-649.0663"/>
<polygon fill="#000000" stroke="#000000" points="332.7545,-646.2722 326.2393,-654.627 336.5426,-652.1587 332.7545,-646.2722"/>
</g>
</g>
</svg>
